HIERARCHY
ROOT reference
{
  OFFSET 0 0 0
  CHANNELS 6 Xposition Yposition Zposition Zrotation Xrotation Yrotation
  JOINT Hips
  {
    OFFSET 356.501 91.4882 232.072
    CHANNELS 3 Zrotation Xrotation Yrotation
    JOINT RightUpLeg
    {
      OFFSET -9.22368 -1.56954 0.0182318
      CHANNELS 3 Zrotation Xrotation Yrotation
      JOINT RightLeg
      {
        OFFSET 0.0168043 -41.8502 0.039304
        CHANNELS 3 Zrotation Xrotation Yrotation
        JOINT RightFoot
        {
          OFFSET -1.24655 -41.4872 1.84727
          CHANNELS 3 Zrotation Xrotation Yrotation
          End Site
          {
            OFFSET 0 -7.69 17.5
          }
        }
      }
    }
    JOINT LeftUpLeg
    {
      OFFSET 9.32755 -1.5915 0.117934
      CHANNELS 3 Zrotation Xrotation Yrotation
      JOINT LeftLeg
      {
        OFFSET 0.115891 -41.8441 0.138627
        CHANNELS 3 Zrotation Xrotation Yrotation
        JOINT LeftFoot
        {
          OFFSET -0.00258131 -42.0603 -2.16995
          CHANNELS 3 Zrotation Xrotation Yrotation
          End Site
          {
            OFFSET 0 -7.69 17.5
          }
        }
      }
    }
    JOINT Spine
    {
      OFFSET 0.0618908 14.3142 0.263402
      CHANNELS 3 Zrotation Xrotation Yrotation
      JOINT Spine1
      {
        OFFSET 0.00953893 9.71784 0.0772804
        CHANNELS 3 Zrotation Xrotation Yrotation
        JOINT Spine2
        {
          OFFSET 0.0659978 10.1164 -0.109334
          CHANNELS 3 Zrotation Xrotation Yrotation
          JOINT Spine3
          {
            OFFSET 0.00354353 9.7233 0.0181573
            CHANNELS 3 Zrotation Xrotation Yrotation
            JOINT Neck
            {
              OFFSET -0.106539 10.3631 0.143191
              CHANNELS 3 Zrotation Xrotation Yrotation
              JOINT Head
              {
                OFFSET 0.0687213 9.49492 0.178169
                CHANNELS 3 Zrotation Xrotation Yrotation
                End Site
                {
                  OFFSET 0 15.95 0
                }
              }
            }
            JOINT RightShoulder
            {
              OFFSET -3.17341 6.93407 0.0508814
              CHANNELS 3 Zrotation Xrotation Yrotation
              JOINT RightArm
              {
                OFFSET -12.8122 0.02699 0.0058978
                CHANNELS 3 Zrotation Xrotation Yrotation
                JOINT RightForeArm
                {
                  OFFSET -26.4689 -0.0132424 0.0432591
                  CHANNELS 3 Zrotation Xrotation Yrotation
                  JOINT RightHand
                  {
                    OFFSET -25.9762 -0.0747187 0.0544432
                    CHANNELS 3 Zrotation Xrotation Yrotation
                    JOINT RightHandThumb1
                    {
                      OFFSET -2.48905 0.190105 3.12053
                      CHANNELS 3 Zrotation Xrotation Yrotation
                      JOINT RightHandThumb2
                      {
                        OFFSET -3.68274 0 0
                        CHANNELS 3 Zrotation Xrotation Yrotation
                        JOINT RightHandThumb3
                        {
                          OFFSET -2.55832 0 0
                          CHANNELS 3 Zrotation Xrotation Yrotation
                          End Site
                          {
                            OFFSET -2.194 0 0
                          }
                        }
                      }
                    }
                    JOINT RightInHandIndex
                    {
                      OFFSET -3.22368 0.508421 1.97842
                      CHANNELS 3 Zrotation Xrotation Yrotation
                      JOINT RightHandIndex1
                      {
                        OFFSET -5.21684 -0.091368 0.999158
                        CHANNELS 3 Zrotation Xrotation Yrotation
                        JOINT RightHandIndex2
                        {
                          OFFSET -3.61937 0 0
                          CHANNELS 3 Zrotation Xrotation Yrotation
                          JOINT RightHandIndex3
                          {
                            OFFSET -2.0521 0 0
                            CHANNELS 3 Zrotation Xrotation Yrotation
                            End Site
                            {
                              OFFSET -1.805 0 0
                            }
                          }
                        }
                      }
                    }
                    JOINT RightInHandMiddle
                    {
                      OFFSET -3.38211 0.517263 0.756737
                      CHANNELS 3 Zrotation Xrotation Yrotation
                      JOINT RightHandMiddle1
                      {
                        OFFSET -5.17411 -0.084 0.313895
                        CHANNELS 3 Zrotation Xrotation Yrotation
                        JOINT RightHandMiddle2
                        {
                          OFFSET -3.94947 0 0
                          CHANNELS 3 Zrotation Xrotation Yrotation
                          JOINT RightHandMiddle3
                          {
                            OFFSET -2.47579 0 0
                            CHANNELS 3 Zrotation Xrotation Yrotation
                            End Site
                            {
                              OFFSET -1.975 0 0
                            }
                          }
                        }
                      }
                    }
                    JOINT RightInHandRing
                    {
                      OFFSET -3.36516 0.537895 -0.128947
                      CHANNELS 3 Zrotation Xrotation Yrotation
                      JOINT RightHandRing1
                      {
                        OFFSET -4.63474 -0.022105 -0.478947
                        CHANNELS 3 Zrotation Xrotation Yrotation
                        JOINT RightHandRing2
                        {
                          OFFSET -3.44238 0 0
                          CHANNELS 3 Zrotation Xrotation Yrotation
                          JOINT RightHandRing3
                          {
                            OFFSET -2.3881 0 0
                            CHANNELS 3 Zrotation Xrotation Yrotation
                            End Site
                            {
                              OFFSET -1.857 0 0
                            }
                          }
                        }
                      }
                    }
                    JOINT RightInHandPinky
                    {
                      OFFSET -3.16105 0.469368 -1.20179
                      CHANNELS 3 Zrotation Xrotation Yrotation
                      JOINT RightHandPinky1
                      {
                        OFFSET -4.14105 -0.022105 -1.09053
                        CHANNELS 3 Zrotation Xrotation Yrotation
                        JOINT RightHandPinky2
                        {
                          OFFSET -2.75653 0 0
                          CHANNELS 3 Zrotation Xrotation Yrotation
                          JOINT RightHandPinky3
                          {
                            OFFSET -1.74189 0 0
                            CHANNELS 3 Zrotation Xrotation Yrotation
                            End Site
                            {
                              OFFSET -1.645 0 0
                            }
                          }
                        }
                      }
                    }
                  }
                }
              }
            }
            JOINT LeftShoulder
            {
              OFFSET 3.13763 6.93537 0.265461
              CHANNELS 3 Zrotation Xrotation Yrotation
              JOINT LeftArm
              {
                OFFSET 12.4516 -0.0856895 0.350644
                CHANNELS 3 Zrotation Xrotation Yrotation
                JOINT LeftForeArm
                {
                  OFFSET 26.6962 -0.139113 0.0812581
                  CHANNELS 3 Zrotation Xrotation Yrotation
                  JOINT LeftHand
                  {
                    OFFSET 25.9561 0.0264111 -0.243705
                    CHANNELS 3 Zrotation Xrotation Yrotation
                    JOINT LeftHandThumb1
                    {
                      OFFSET 2.48905 0.190105 3.12053
                      CHANNELS 3 Zrotation Xrotation Yrotation
                      JOINT LeftHandThumb2
                      {
                        OFFSET 3.68274 0 0
                        CHANNELS 3 Zrotation Xrotation Yrotation
                        JOINT LeftHandThumb3
                        {
                          OFFSET 2.55832 0 0
                          CHANNELS 3 Zrotation Xrotation Yrotation
                          End Site
                          {
                            OFFSET 2.194 0 0
                          }
                        }
                      }
                    }
                    JOINT LeftInHandIndex
                    {
                      OFFSET 3.22368 0.508421 1.97842
                      CHANNELS 3 Zrotation Xrotation Yrotation
                      JOINT LeftHandIndex1
                      {
                        OFFSET 5.21684 -0.091368 0.999158
                        CHANNELS 3 Zrotation Xrotation Yrotation
                        JOINT LeftHandIndex2
                        {
                          OFFSET 3.61937 0 0
                          CHANNELS 3 Zrotation Xrotation Yrotation
                          JOINT LeftHandIndex3
                          {
                            OFFSET 2.0521 0 0
                            CHANNELS 3 Zrotation Xrotation Yrotation
                            End Site
                            {
                              OFFSET 1.805 0 0
                            }
                          }
                        }
                      }
                    }
                    JOINT LeftInHandMiddle
                    {
                      OFFSET 3.38211 0.517263 0.756737
                      CHANNELS 3 Zrotation Xrotation Yrotation
                      JOINT LeftHandMiddle1
                      {
                        OFFSET 5.17411 -0.084 0.313895
                        CHANNELS 3 Zrotation Xrotation Yrotation
                        JOINT LeftHandMiddle2
                        {
                          OFFSET 3.94947 0 0
                          CHANNELS 3 Zrotation Xrotation Yrotation
                          JOINT LeftHandMiddle3
                          {
                            OFFSET 2.47579 0 0
                            CHANNELS 3 Zrotation Xrotation Yrotation
                            End Site
                            {
                              OFFSET 1.975 0 0
                            }
                          }
                        }
                      }
                    }
                    JOINT LeftInHandRing
                    {
                      OFFSET 3.36516 0.537895 -0.128947
                      CHANNELS 3 Zrotation Xrotation Yrotation
                      JOINT LeftHandRing1
                      {
                        OFFSET 4.63474 -0.022105 -0.478947
                        CHANNELS 3 Zrotation Xrotation Yrotation
                        JOINT LeftHandRing2
                        {
                          OFFSET 3.44238 0 0
                          CHANNELS 3 Zrotation Xrotation Yrotation
                          JOINT LeftHandRing3
                          {
                            OFFSET 2.3881 0 0
                            CHANNELS 3 Zrotation Xrotation Yrotation
                            End Site
                            {
                              OFFSET 1.857 0 0
                            }
                          }
                        }
                      }
                    }
                    JOINT LeftInHandPinky
                    {
                      OFFSET 3.16105 0.469368 -1.20179
                      CHANNELS 3 Zrotation Xrotation Yrotation
                      JOINT LeftHandPinky1
                      {
                        OFFSET 4.14105 -0.022105 -1.09053
                        CHANNELS 3 Zrotation Xrotation Yrotation
                        JOINT LeftHandPinky2
                        {
                          OFFSET 2.75653 0 0
                          CHANNELS 3 Zrotation Xrotation Yrotation
                          JOINT LeftHandPinky3
                          {
                            OFFSET 1.74189 0 0
                            CHANNELS 3 Zrotation Xrotation Yrotation
                            End Site
                            {
                              OFFSET 1.645 0 0
                            }
                          }
                        }
                      }
                    }
                  }
                }
              }
            }
          }
        }
      }
    }
  }
}
MOTION
Frames: 2
Frame Time: 0.00833333
3.000000000000000000e+02 0.000000000000000000e+00 0.000000000000000000e+00 0.000000000000000000e+00 0.000000000000000000e+00 0.000000000000000000e+00 -3.726257293994923725e-02 8.926170171206716103e-03 5.092237112071880401e-02 -9.113181826110224037e-02 2.051698009581033252e-02 1.054049834431573796e-01 1.209281269717607105e-01 -5.808004047204809450e-02 -2.309004977492104538e-01 1.780288134962625113e-02 7.205070867394766654e-02 -9.076950602961510878e-03 -4.124985911380983639e-02 -3.161903659302811760e-03 1.742682695135229845e-02 7.764580919127474223e-02 -9.852579476609351142e-03 -6.502401827569183335e-02 -8.571650431432206035e-03 9.486724011595556311e-03 -2.960658673811014316e-02 2.327272323269805737e-02 3.796462164443522441e-02 2.071047099196124050e-02 6.474060071352807574e-03 2.981708445676448018e-03 5.768848947322563307e-03 8.783867396705405395e-03 6.999873386436341466e-03 8.912409971331549524e-03 -4.904617315090668839e-03 4.572699677267437826e-03 -3.954760426546300757e-03 -7.895583989942387901e-04 8.988901079475005232e-03 -1.954840635183728581e-02 -9.484609458481267630e-02 -1.400290053513479453e-02 -1.063984291158892176e-01 -5.767195381489212749e-03 -9.881378447006380905e-02 8.329132634717401409e-03 2.569408355500506225e-02 7.905632891710009935e-02 -2.337507440106453005e-01 -4.418729736716980883e-02 1.955130955632469747e-02 1.428674795257517394e-01 -4.175906617190519032e-01 9.004943628720570026e-03 -5.162905211533147520e-01 0.000000000000000000e+00 0.000000000000000000e+00 0.000000000000000000e+00 -2.395764878731116654e-16 -2.286934498757065479e-15 0.000000000000000000e+00 1.820026801963346897e-15 3.104051852980541013e-15 0.000000000000000000e+00 1.582639200033272341e-15 -2.867925729938442838e-15 -2.070073090462481111e-16 0.000000000000000000e+00 0.000000000000000000e+00 0.000000000000000000e+00 0.000000000000000000e+00 5.825250791622517670e-15 -2.449573255858641854e-15 0.000000000000000000e+00 -1.142516034713809743e-15 1.973025651270007316e-15 1.582639200033272341e-15 -2.867925729938442838e-15 -2.070073090462481111e-16 0.000000000000000000e+00 7.861107799416061549e-15 -3.231955013097847874e-16 0.000000000000000000e+00 -4.431151510178089249e-16 8.034240874295598498e-15 0.000000000000000000e+00 -1.589191427158975464e-15 -4.853104785335526840e-15 1.582639200033272341e-15 -2.867925729938442838e-15 -2.070073090462481111e-16 0.000000000000000000e+00 0.000000000000000000e+00 0.000000000000000000e+00 0.000000000000000000e+00 -4.093053506948732441e-15 9.484767146966381171e-15 0.000000000000000000e+00 -9.080110027747854119e-15 -1.230578547091750199e-14 1.582639200033272341e-15 -2.867925729938442838e-15 -2.070073090462481111e-16 0.000000000000000000e+00 0.000000000000000000e+00 0.000000000000000000e+00 0.000000000000000000e+00 -8.963963426238129018e-15 -2.941108747214633915e-15 0.000000000000000000e+00 -1.076446542783638054e-14 -1.015281164250805535e-14 3.376182133603518321e-02 -1.414201864558479408e-03 3.578377313279355876e-02 5.030550903168757443e-02 1.081859519336992592e-01 6.554905345383325865e-03 -4.645318773274919044e-01 -4.069888829154130749e-01 -5.426884352666756506e-01 4.847877219160244833e-01 4.839329168626256283e-01 3.487396023793354893e-01 0.000000000000000000e+00 0.000000000000000000e+00 0.000000000000000000e+00 3.294821204550183961e-15 6.481244059789562319e-16 0.000000000000000000e+00 -2.745270418712056836e-15 2.536400878408297007e-15 0.000000000000000000e+00 7.563359882555146427e-15 -4.743665886549188445e-17 -6.342744300445248292e-15 0.000000000000000000e+00 0.000000000000000000e+00 0.000000000000000000e+00 0.000000000000000000e+00 -4.831139321094298945e-16 7.234683287089043750e-15 0.000000000000000000e+00 -8.491488228254383719e-16 6.718774490814018563e-15 7.563359882555146427e-15 -4.743665886549188445e-17 -6.342744300445248292e-15 0.000000000000000000e+00 -6.459797777562112320e-15 -4.137464626146615577e-15 0.000000000000000000e+00 -1.531886765397594890e-15 -4.485482142551741856e-15 0.000000000000000000e+00 -5.433286428428932460e-15 1.580304862288110594e-14 7.563359882555146427e-15 -4.743665886549188445e-17 -6.342744300445248292e-15 0.000000000000000000e+00 0.000000000000000000e+00 0.000000000000000000e+00 0.000000000000000000e+00 -9.964949346098465598e-15 5.321423027307309922e-15 0.000000000000000000e+00 -4.743007063311721177e-15 8.976056200021468112e-15 7.563359882555146427e-15 -4.743665886549188445e-17 -6.342744300445248292e-15 0.000000000000000000e+00 0.000000000000000000e+00 0.000000000000000000e+00 0.000000000000000000e+00 6.493338055153681024e-16 7.617457644965344710e-15 0.000000000000000000e+00 -1.830695826370136919e-15 8.847938125567993560e-15
3.000000000000000000e+02 0.000000000000000000e+00 0.000000000000000000e+00 0.000000000000000000e+00 0.000000000000000000e+00 0.000000000000000000e+00 -3.029336233733170847e-02 1.207052550860371852e-02 4.473455182574605921e-02 -7.305132306034781142e-02 2.832752836351533354e-02 1.147343243420439890e-01 1.227107343262056893e-01 -3.811118396411342785e-02 -2.092880589405969605e-01 1.022122246822990826e-02 4.585158145303873389e-02 -2.481811681757487009e-02 -2.551550338233758014e-02 4.192196614817403182e-03 3.697638005927361693e-02 7.505239264597611537e-02 -1.307583165395458276e-02 -7.404248921073791623e-02 -1.404469880664708376e-02 7.789133424044245198e-03 -3.805223541839147794e-02 2.225387218827824115e-02 3.055118948898017869e-02 1.007545704369287518e-02 5.985087078887087880e-03 2.533606930772685801e-03 4.059396381475283491e-03 8.462174403834813938e-03 6.047601291110428837e-03 5.596368703921137527e-03 -4.243494992110126256e-03 3.021216653930449032e-03 -2.450649651253372033e-03 -1.983890301512169271e-03 5.427586117135486075e-03 -1.101883977048226729e-02 -6.767220356216870070e-02 -8.151363509883579814e-03 -8.837770885830213696e-02 -1.877347367748682591e-02 -9.594476200999067783e-02 4.254628707963044321e-02 -4.825585954575340071e-03 1.030999074014029085e-02 -2.096656499533184337e-01 -4.174957699014001516e-02 1.796832810750108311e-02 7.176634101769986673e-02 -3.924621366726067651e-01 7.663811330848546710e-02 -5.316510249951180711e-01 0.000000000000000000e+00 0.000000000000000000e+00 0.000000000000000000e+00 2.430936341104400025e-15 -1.373815314893947869e-15 0.000000000000000000e+00 3.335505953572297029e-15 3.658159393059342591e-15 0.000000000000000000e+00 1.004760861762195774e-15 -2.667524955437131396e-15 -4.512696046263712242e-16 0.000000000000000000e+00 0.000000000000000000e+00 0.000000000000000000e+00 0.000000000000000000e+00 7.193662838900164316e-15 2.171089282901270344e-15 0.000000000000000000e+00 1.253480660646924601e-15 6.574677935337018883e-15 1.004760861762195774e-15 -2.667524955437131396e-15 -4.512696046263712242e-16 0.000000000000000000e+00 7.894187110868159097e-15 2.599630331148029611e-15 0.000000000000000000e+00 8.680432671601563591e-16 1.241972917865314515e-14 0.000000000000000000e+00 8.991867711500557736e-16 2.306958238510548018e-15 1.004760861762195774e-15 -2.667524955437131396e-15 -4.512696046263712242e-16 0.000000000000000000e+00 0.000000000000000000e+00 0.000000000000000000e+00 0.000000000000000000e+00 -3.046726128936992985e-15 1.031329976074684915e-14 0.000000000000000000e+00 -7.878830991256288695e-15 -5.564750896530705096e-15 1.004760861762195774e-15 -2.667524955437131396e-15 -4.512696046263712242e-16 0.000000000000000000e+00 0.000000000000000000e+00 0.000000000000000000e+00 0.000000000000000000e+00 -7.656970941885759455e-15 6.040619784733802407e-16 0.000000000000000000e+00 -8.430489378398671097e-15 -5.229830918501794832e-16 2.357302271612983155e-02 -3.420815693949464092e-03 5.029979937031232168e-02 -7.036224512332531211e-04 5.188276168014217815e-02 3.299618862274636411e-02 -5.433885119125470009e-01 -3.293115956443270487e-01 -6.125759927153747730e-01 4.071899525706577649e-01 3.250603287255560137e-01 2.595016990164744630e-01 0.000000000000000000e+00 0.000000000000000000e+00 0.000000000000000000e+00 3.042316228052611649e-15 4.461666294302451379e-16 0.000000000000000000e+00 -3.176170257746660683e-15 2.207029304606187638e-15 0.000000000000000000e+00 6.832982583795765548e-15 -4.167693880796382079e-16 -4.802635834323406858e-15 0.000000000000000000e+00 0.000000000000000000e+00 0.000000000000000000e+00 0.000000000000000000e+00 3.212681539809138153e-17 4.078971565297562878e-15 0.000000000000000000e+00 -9.267987597841789163e-16 5.150443178254578538e-15 6.832982583795765548e-15 -4.167693880796382079e-16 -4.802635834323406858e-15 0.000000000000000000e+00 -6.543368463032245582e-15 -2.883048056822512187e-15 0.000000000000000000e+00 -1.710579049771947268e-15 -1.791712800748750847e-15 0.000000000000000000e+00 -4.899756288010621030e-15 1.281895140992722631e-14 6.832982583795765548e-15 -4.167693880796382079e-16 -4.802635834323406858e-15 0.000000000000000000e+00 0.000000000000000000e+00 0.000000000000000000e+00 0.000000000000000000e+00 -8.595225362200561306e-15 6.523309011452379771e-15 0.000000000000000000e+00 -4.024463431438442990e-15 8.817014099474838058e-15 6.832982583795765548e-15 -4.167693880796382079e-16 -4.802635834323406858e-15 0.000000000000000000e+00 0.000000000000000000e+00 0.000000000000000000e+00 0.000000000000000000e+00 5.609384784137479182e-16 6.224636529162816576e-15 0.000000000000000000e+00 -1.708453150763721691e-15 7.723898664495449480e-15
